<?xml version="1.0" encoding="UTF-8"?><svg id="Layer_2" xmlns="http://www.w3.org/2000/svg" viewBox="0 0 60.16 60.16"><defs><style>.cls-1{fill:#fff;}.cls-1,.cls-2{stroke-width:0px;}.cls-2{fill:#212121;}</style></defs><g id="TEXTS"><rect class="cls-2" width="60.16" height="60.16" rx="13.22" ry="13.22"/><path class="cls-1" d="m42.45,34.75c-.3-.35-.53-.75-.67-1.18l-.04-.11-.04-.13-.02-.08-.04-.15-.02-.09c-.02-.08-.04-.17-.05-.26,0-.03,0-.06-.01-.1l-.02-.16s0-.07,0-.1v-.13s6.77-1.63,6.77-1.63c-.04-.35-.14-.69-.31-1.01-.25-.55-.66-1.01-1.17-1.32-.57-.36-1.21-.59-1.88-.69l-.11-.02c-.4-.04-.81-.04-1.21,0-1.07.12-2.07.57-2.86,1.3-.78.71-1.3,1.66-1.48,2.7v.04c-.01.07-.02.13-.03.21,0,.08,0,.08-.01.13,0,.04,0,.07,0,.11,0,.06,0,.13,0,.19v.31c.02.56.13,1.11.35,1.63.78,1.81,2.56,3,4.54,3.02.82.02,1.63-.16,2.36-.53.73-.36,1.35-.89,1.82-1.55l-.12-.29c-.48.92-3.79,2.05-5.74-.11m3.09-4.02l-4.03.97c0-.12,0-.24.02-.36v-.04s0-.08,0-.12l.02-.16c.04-.25.09-.5.17-.74.14-.45.35-.88.62-1.26.25-.35.57-.65.94-.87.36-.21.76-.32,1.18-.32.58,0,1,.16,1.27.48.1.11.18.24.24.37.27.69.25,1.83-.42,2.03"/><path class="cls-1" d="m30.35,34.85c-.48.93-3.79,2.06-5.74-.1-.32-.37-.56-.81-.7-1.28-.17-.53-.25-1.09-.24-1.65,0-.52.07-1.04.23-1.54.14-.45.35-.88.62-1.26.25-.35.56-.65.93-.87.36-.21.76-.32,1.18-.32.58,0,1,.16,1.27.48.28.35.42.79.4,1.23,0,.23-.03.46-.1.68l2.06-.48c-.75-1.94-3.23-2.21-3.69-2.21-3.93-.06-6.08,3.63-4.81,6.64.78,1.82,2.56,3,4.54,3.02.82.02,1.63-.16,2.36-.53.73-.36,1.35-.89,1.82-1.55l-.12-.28Z"/><path class="cls-1" d="m39.28,34.85c-.48.93-3.79,2.06-5.74-.1-.32-.37-.55-.8-.69-1.27-.17-.53-.25-1.09-.24-1.65,0-.52.07-1.04.23-1.54.14-.45.34-.88.62-1.26.24-.35.56-.65.93-.88.36-.21.76-.32,1.18-.32.58,0,1,.16,1.27.48.28.35.42.78.41,1.23,0,.23-.03.46-.1.68l2.05-.48c-.74-1.94-3.22-2.2-3.68-2.2-3.93-.06-6.08,3.63-4.81,6.64.78,1.82,2.56,3.01,4.54,3.03.82.02,1.63-.16,2.37-.53.73-.36,1.35-.89,1.82-1.55l-.13-.29Z"/><path class="cls-1" d="m51.28,35.28v-12.35l-2.91.71h-.02v.27c.1,0,.98.24.98.85v10.48c0,1.32-.93,1.51-1.57,1.55v.22h5.08v-.22c-.63-.04-1.54-.23-1.57-1.51"/><path class="cls-1" d="m16.15,22.93l-2.88.7h-.02v.21c.1,0,.96.3.73.85-1.09,2.42-4.64,10.48-4.82,10.85-.61,1.21-1.48,1.21-1.84,1.25v.22h4.5v-.23s-1.71.02-1.71-.87c0-.54.88-2.68,1.12-3.26l5.87-1.43s1.59,3.86,1.59,4.67c0,.87-1.4.9-1.45.9v.22h5.88v-.22c-.85.01-1.63-.48-1.98-1.26-.18-.35-4.99-12.6-4.99-12.6m.75,7.8l-5.42,1.32c.03-.07,2.98-6.98,3.06-7.15.12.29,2.36,5.83,2.36,5.83h0Z"/></g></svg>