<?xml version="1.0" encoding="UTF-8"?><svg id="Layer_2" xmlns="http://www.w3.org/2000/svg" viewBox="0 0 158.52 149.67"><defs><style>.cls-1{fill:#fff;}.cls-1,.cls-2{stroke-width:0px;}.cls-2{fill:#212121;}</style></defs><g id="TEXTS"><rect class="cls-2" x="4.43" y="-4.43" width="149.67" height="158.52" rx="14.94" ry="14.94" transform="translate(4.43 154.1) rotate(-90)"/><path class="cls-1" d="m46.09,80.35c.02-.12.04-.24.06-.36.1-.59.33-1.12.57-1.66.91-2.03,1.87-4.03,2.85-6.03.89-1.81,1.81-3.6,2.73-5.4.29-.56.62-1.09,1.09-1.51.58-.52,1.25-.84,2.03-.9,1.19-.09,2.15.35,2.92,1.24.31.36.55.75.77,1.17.86,1.67,1.73,3.34,2.56,5.03.86,1.75,1.7,3.51,2.52,5.28.28.6.55,1.19.8,1.8.21.52.36,1.06.34,1.62-.06,1.84-.98,3.5-2.84,4.24-.41.16-.83.26-1.27.29-.03,0-.07.01-.1.02h-.44s-.07-.02-.1-.02c-.83-.06-1.61-.32-2.33-.73-.92-.53-1.71-1.22-2.43-2-.13-.15-.13-.15-.27,0-.49.53-1.01,1.03-1.59,1.46-.76.57-1.58,1.01-2.52,1.19-.24.05-.49.08-.74.11h-.44c-.11-.04-.23-.03-.35-.04-1.8-.24-3.27-1.55-3.71-3.31-.05-.2-.08-.4-.12-.61v-.88Zm9.61-8.23c.12,0,.24,0,.36,0,.11,0,.22.02.33.05,1.26.26,2.16.96,2.63,2.17.28.71.25,1.45.11,2.18-.18.98-.58,1.87-1.08,2.72-.4.69-.86,1.34-1.37,1.96-.07.09-.09.15,0,.25.66.69,1.33,1.35,2.16,1.84.71.42,1.47.67,2.3.59,1.14-.1,1.99-.67,2.51-1.68.46-.9.44-1.85.07-2.77-.33-.82-.71-1.62-1.09-2.42-.62-1.31-1.24-2.61-1.87-3.91-.88-1.82-1.79-3.62-2.72-5.41-.15-.29-.3-.58-.5-.85-.62-.87-1.67-1.19-2.64-.8-.53.22-.9.61-1.17,1.09-.5.88-.95,1.78-1.4,2.68-.9,1.77-1.79,3.55-2.65,5.35-.64,1.34-1.28,2.68-1.88,4.03-.3.66-.48,1.34-.37,2.07.15,1.01.68,1.78,1.57,2.26.92.5,1.89.49,2.85.1,1.17-.47,2.06-1.31,2.89-2.22.05-.05.04-.09,0-.15-.1-.12-.2-.25-.3-.38-.77-1.02-1.46-2.1-1.9-3.31-.29-.81-.48-1.63-.36-2.5.1-.76.41-1.43.96-1.96.7-.68,1.55-1.01,2.53-1m2.18,3.38c0-.49-.15-1.05-.59-1.48-.64-.63-1.43-.77-2.27-.53-.82.24-1.33.8-1.47,1.65-.09.51-.02,1.02.12,1.51.38,1.32,1.13,2.44,1.96,3.52.06.08.1.05.14-.02.62-.81,1.19-1.65,1.61-2.59.28-.62.49-1.26.49-2.07"/><path class="cls-1" d="m89.46,72.66c.15-.14.29-.26.46-.36.43-.26.9-.39,1.4-.41.95-.03,1.82.23,2.58.81.89.68,1.38,1.6,1.51,2.7.11.92-.01,1.81-.47,2.63-.64,1.15-1.63,1.82-2.92,2.02-.54.08-1.07.06-1.58-.12-.38-.13-.7-.34-1.01-.66,0,.11,0,.19,0,.27,0,.22-.13.35-.35.35-.5,0-1,0-1.5,0-.11,0-.15-.04-.14-.14,0,0,0,0,0-.01,0-3.75,0-7.49,0-11.24,0-.12.04-.17.16-.16.56,0,1.11,0,1.67,0,.19,0,.19,0,.19.19,0,1.31,0,2.62,0,3.94,0,.06-.01.11.02.19m-.02,3.32c0,.42,0,.85,0,1.27,0,.09.01.16.07.23.1.11.21.22.33.31.54.41,1.15.48,1.8.37.49-.08.92-.29,1.26-.67.51-.58.63-1.26.5-2-.22-1.24-1.29-1.77-2.36-1.74-.59.02-1.08.29-1.49.7-.07.08-.11.16-.11.27,0,.42,0,.84,0,1.25"/><path class="cls-1" d="m106.44,72.68c.28-.28.59-.48.95-.61.67-.24,1.36-.22,2.04-.06,1.55.38,2.71,1.66,2.95,3.26.18,1.23-.05,2.36-.83,3.34-.65.82-1.5,1.29-2.53,1.45-.65.1-1.27.05-1.87-.23-.24-.11-.44-.26-.64-.44-.02-.02-.04-.06-.07-.04-.03.01-.02.05-.02.08,0,.03,0,.05,0,.08,0,.29-.12.4-.4.4-.47,0-.95,0-1.43,0-.16,0-.17,0-.17-.17v-11.21c0-.17,0-.17.17-.17.55,0,1.11,0,1.66,0,.17,0,.17,0,.17.18,0,1.33,0,2.66,0,3.99,0,.05-.01.1.02.17m1.68,5.51c.08,0,.16,0,.25,0,.7-.07,1.29-.33,1.69-.93.36-.53.44-1.13.33-1.75-.22-1.24-1.26-1.8-2.38-1.76-.59.02-1.08.3-1.49.72-.07.07-.1.15-.1.25,0,.83,0,1.67,0,2.5,0,.09.03.17.09.24.42.5.97.73,1.62.72"/><path class="cls-1" d="m75.49,72.7c0-.13,0-.22,0-.31,0-.15.1-.25.24-.28.06-.01.13-.02.19-.02.45,0,.91,0,1.36,0,.18,0,.19,0,.19.18,0,2.49,0,4.98,0,7.47,0,.13-.03.18-.17.17-.48,0-.97,0-1.45,0-.26,0-.36-.11-.36-.36,0-.07,0-.15,0-.21-.05-.02-.06.01-.08.03-.62.6-1.37.8-2.21.74-.54-.04-1.05-.16-1.53-.4-1.22-.62-1.93-1.63-2.15-2.97-.19-1.2.03-2.31.78-3.29.67-.87,1.56-1.37,2.65-1.5.59-.07,1.17-.04,1.73.2.26.12.5.27.71.47.03.03.06.05.11.1m0,3.31c0-.37-.02-.73,0-1.1.02-.26-.09-.43-.27-.58-.07-.06-.13-.11-.2-.16-.51-.35-1.08-.46-1.69-.35-.54.09-1.02.32-1.38.75-.4.49-.51,1.06-.47,1.66.04.52.23.98.6,1.35.39.38.86.57,1.39.63.75.08,1.39-.12,1.9-.69.07-.08.11-.17.11-.28,0-.41,0-.82,0-1.23"/><path class="cls-1" d="m98.13,72.7c.3-.28.6-.49.95-.61,1.23-.39,2.38-.26,3.39.59.56.47.8,1.1.88,1.8.04.35.05.7.05,1.05,0,1.39,0,2.79,0,4.18q0,.22-.22.22c-.54,0-1.07,0-1.61,0-.18,0-.19,0-.19-.19,0-1.46,0-2.92,0-4.39,0-.19-.02-.38-.05-.57-.13-.66-.49-1-1.17-1.06-.7-.06-1.3.15-1.8.64-.08.08-.11.16-.11.26,0,1.69,0,3.37,0,5.06q0,.22-.21.22c-.54,0-1.09,0-1.63,0-.12,0-.16-.04-.16-.16,0-2.5,0-5,0-7.49,0-.13.04-.17.17-.16.43,0,.86,0,1.28,0,.26,0,.46.07.43.44,0,.05,0,.09,0,.18"/><path class="cls-1" d="m83.92,72.68c.19-.16.35-.29.53-.4.64-.39,1.33-.46,2.05-.31.11.02.14.07.14.18,0,.52,0,1.04,0,1.55,0,.15,0,.16-.15.12-.61-.14-1.22-.14-1.8.11-.22.1-.42.24-.6.4-.1.09-.14.18-.14.32,0,1.44,0,2.88,0,4.32,0,.27,0,.54,0,.8,0,.12-.04.17-.17.17-.56,0-1.12,0-1.68,0-.16,0-.17-.01-.17-.18,0-1.6,0-3.19,0-4.79,0-.89,0-1.79,0-2.68,0-.18,0-.19.19-.19.45,0,.9,0,1.35,0,.06,0,.11,0,.17.01.19.03.28.13.29.32,0,.07,0,.15,0,.26"/><path class="cls-1" d="m80.71,76.01v3.7c0,.2,0,.2-.19.2-.55,0-1.11,0-1.66,0-.16,0-.17-.01-.17-.17,0-2.49,0-4.99,0-7.48,0-.12.04-.17.16-.17.56,0,1.12,0,1.68,0,.16,0,.17.01.17.18v3.74"/><path class="cls-1" d="m79.7,71.04c-.75,0-1.35-.61-1.35-1.35,0-.75.6-1.36,1.34-1.36.75,0,1.36.61,1.36,1.35,0,.76-.59,1.35-1.35,1.35"/></g></svg>