<?xml version="1.0" encoding="UTF-8"?><svg id="Layer_2" xmlns="http://www.w3.org/2000/svg" viewBox="0 0 154.92 60.16"><defs><style>.cls-1{fill:#fff;}.cls-1,.cls-2{stroke-width:0px;}.cls-2{fill:#212121;}</style></defs><g id="TEXTS"><rect class="cls-2" x="47.38" y="-47.38" width="60.16" height="154.92" rx="14.6" ry="14.6" transform="translate(47.38 107.54) rotate(-90)"/><path class="cls-1" d="m73.91,36.52c-2.12,0-3.59,2.01-3.59,3.81,0,1.57,1.1,2.64,2.74,2.64,1.18,0,1.92-.49,2.42-.92l.04-.03-.54-.69-.04.03c-.52.43-1.04.71-1.84.71-1.08,0-1.78-.7-1.78-1.78,0,0,.01-.1.01-.15h4.74v-.03c.16-.4.24-.81.24-1.2-.01-1.2-.76-2.39-2.42-2.39m1.38,2.78h-3.79c.38-1.16,1.3-1.91,2.36-1.91s1.46.78,1.46,1.51c.01,0-.02.33-.03.41m-4.85-3.15c-.62-1.16-1.75-1.79-3.15-1.79-2.65,0-4.99,2.41-4.99,5.15,0,2.03,1.46,3.46,3.56,3.46,1.67,0,2.65-.8,3.25-1.39l.03-.04-.7-.69-.03.03c-.8.76-1.55,1.1-2.51,1.1-1.51,0-2.52-1.02-2.52-2.51,0-2.22,1.79-4.16,3.82-4.16,1.07,0,1.77.41,2.34,1.37l.02.04.89-.55v-.03Zm38.27-2s-.94,3.5-1,3.77c-.27-.58-.89-1.4-2.26-1.4-1.88,0-3.46,1.75-3.46,3.82,0,1.52,1.04,2.62,2.46,2.62.81,0,1.53-.35,2.18-1.05-.06.25-.24.91-.24.91h1.02l2.32-8.67h-1,0Zm-4.01,7.91c-.99,0-1.66-.72-1.66-1.8,0-1.56,1.12-2.83,2.48-2.83,1.06,0,1.82.76,1.82,1.82,0,1.42-1.3,2.8-2.65,2.8m-23.27-5.55c-.81,0-1.52.36-2.19,1.06.06-.25.25-.93.25-.93h-1.02l-2.16,8.05h1.02s.79-2.93.84-3.16c.44.91,1.22,1.42,2.26,1.42,1.88,0,3.46-1.75,3.46-3.82,0-1.54-1.02-2.62-2.46-2.62m-1.08,5.54c-1.06,0-1.82-.78-1.82-1.84,0-1.41,1.31-2.8,2.64-2.8,1,0,1.66.71,1.66,1.8,0,1.56-1.11,2.83-2.48,2.83m15.26-5.54c-2.12,0-3.59,2.01-3.59,3.81,0,1.57,1.1,2.64,2.75,2.64,1.18,0,1.91-.49,2.42-.92l.04-.03-.54-.69-.04.03c-.52.43-1.04.71-1.84.71-1.08,0-1.78-.7-1.78-1.78,0,0,.01-.1.01-.15h4.74v-.03c.16-.4.24-.81.24-1.2-.01-1.2-.75-2.39-2.42-2.39m1.37,2.78h-3.78c.38-1.16,1.3-1.91,2.36-1.91s1.46.78,1.46,1.51c0,0-.03.33-.04.41m1.59,3.53h1.03l1.68-6.17h-1.03l-1.68,6.17Zm2.26-8.49l-.31,1.1h1.16l.31-1.1h-1.16Zm-11.9,2.19c-.92,0-1.53.48-2.01.98.1-.36.91-3.35.91-3.35h-1.02l-2.34,8.67h1.02l.93-3.46c.31-1.12,1.21-1.92,2.15-1.92.82,0,1.31.46,1.31,1.21,0,.21-.03.48-.09.66l-.94,3.5h1.02l.91-3.42c.1-.4.15-.71.15-.95,0-1.17-.79-1.93-2-1.93m21.45,4.07c-.62,0-1.12.5-1.12,1.12h0c0,.62.5,1.13,1.12,1.13s1.12-.5,1.12-1.12c0-.64-.51-1.13-1.12-1.13m0,2.04c-.51,0-.92-.4-.92-.92s.4-.93.92-.93.92.4.92.92c0,.52-.39.93-.92.93"/><path class="cls-1" d="m109.91,41.08v1.2h.27v-.41h.2s.32.41.32.41h.34s-.31-.4-.37-.48c.15-.06.25-.17.25-.34,0-.11-.03-.2-.1-.26-.09-.09-.22-.13-.36-.13h-.55s0,0,0,0Zm.54.26s.2.01.2.13c0,.13-.15.14-.21.14h-.26v-.29h.27Z"/><path class="cls-1" d="m74.6,15.46l-4.8,6.74c-25.66,8.78-26.24,16.95-25.82,18.12-1.24-2.39-.45-5.7,2.21-8.84,4.22-4.99,11.42-8.94,15.69-10.94,0,.01,7.79-3.54,12.72-5.08"/><path class="cls-1" d="m66.55,26.75s-24.7,8.43-21.76,14.72c.21.44.68.78.68.78-1.07-1.42,1.89-5.65,17.75-10.82l3.34-4.68Z"/><path class="cls-1" d="m54.81,36.99c-3.7,1.06-10.22,3.94-8.41,5.91.08.08.2.17.32.25-1.56-1.53,8.08-3.75,11.12-4.18l2.51-3.53c-1.23.29-5.19,1.45-5.54,1.55"/></g></svg>